<mxfile host="65bd71144e">
    <diagram id="wIHIW95VSONjYJp1rd23" name="Page-1">
        <mxGraphModel dx="265" dy="341" grid="1" gridSize="10" guides="1" tooltips="1" connect="1" arrows="1" fold="1" page="1" pageScale="1" pageWidth="850" pageHeight="1100" math="0" shadow="0">
            <root>
                <mxCell id="0"/>
                <mxCell id="1" parent="0"/>
                <mxCell id="2" value="Personeelslid" style="swimlane;fontStyle=1;childLayout=stackLayout;horizontal=1;startSize=26;horizontalStack=0;resizeParent=1;resizeParentMax=0;resizeLast=0;collapsible=1;marginBottom=0;align=center;fontSize=14;strokeColor=#666666;fillColor=#f5f5f5;fontColor=#333333;" parent="1" vertex="1">
                    <mxGeometry x="300" y="70" width="160" height="126" as="geometry"/>
                </mxCell>
                <mxCell id="4" value="&lt;u&gt;personeelsnumer&lt;/u&gt;&lt;br&gt;naam&lt;br&gt;voornaam&lt;br&gt;woonplaats&lt;br&gt;geboorteDatum&lt;br&gt;datumInDienst" style="text;html=1;align=center;verticalAlign=middle;resizable=0;points=[];autosize=1;strokeColor=none;fillColor=none;" parent="2" vertex="1">
                    <mxGeometry y="26" width="160" height="100" as="geometry"/>
                </mxCell>
                <mxCell id="5" value="Afdeeling" style="swimlane;fontStyle=1;childLayout=stackLayout;horizontal=1;startSize=30;horizontalStack=0;resizeParent=1;resizeParentMax=0;resizeLast=0;collapsible=1;marginBottom=0;align=center;fontSize=14;strokeColor=#666666;fillColor=#f5f5f5;fontColor=#333333;" parent="1" vertex="1">
                    <mxGeometry x="640" y="70" width="160" height="90" as="geometry"/>
                </mxCell>
                <mxCell id="7" value="&lt;u&gt;code&lt;/u&gt;&lt;br&gt;omschrijving&lt;br&gt;&lt;u&gt;telefoonNummer&lt;/u&gt;&lt;br&gt;" style="text;html=1;align=center;verticalAlign=middle;resizable=0;points=[];autosize=1;strokeColor=none;fillColor=none;" parent="5" vertex="1">
                    <mxGeometry y="30" width="160" height="60" as="geometry"/>
                </mxCell>
                <mxCell id="8" style="edgeStyle=none;html=1;entryX=-0.002;entryY=0.067;entryDx=0;entryDy=0;entryPerimeter=0;endArrow=none;endFill=0;" parent="1" target="7" edge="1">
                    <mxGeometry relative="1" as="geometry">
                        <mxPoint x="460" y="104" as="sourcePoint"/>
                        <mxPoint x="641.5999999999999" y="104.35000000000002" as="targetPoint"/>
                    </mxGeometry>
                </mxCell>
                <mxCell id="9" value="1..N" style="text;html=1;align=center;verticalAlign=middle;resizable=0;points=[];autosize=1;strokeColor=none;fillColor=none;" parent="1" vertex="1">
                    <mxGeometry x="460" y="70" width="50" height="30" as="geometry"/>
                </mxCell>
                <mxCell id="10" value="1..1" style="text;html=1;align=center;verticalAlign=middle;resizable=0;points=[];autosize=1;strokeColor=none;fillColor=none;" parent="1" vertex="1">
                    <mxGeometry x="600" y="70" width="40" height="30" as="geometry"/>
                </mxCell>
                <mxCell id="11" value="werktInAfdeeling &amp;gt;" style="text;html=1;align=center;verticalAlign=middle;resizable=0;points=[];autosize=1;strokeColor=none;fillColor=none;" parent="1" vertex="1">
                    <mxGeometry x="490" y="100" width="120" height="30" as="geometry"/>
                </mxCell>
                <mxCell id="13" value="&amp;lt; Heeft" style="text;html=1;align=center;verticalAlign=middle;resizable=0;points=[];autosize=1;strokeColor=none;fillColor=none;" parent="1" vertex="1">
                    <mxGeometry x="520" y="70" width="60" height="30" as="geometry"/>
                </mxCell>
                <mxCell id="18" style="edgeStyle=none;html=1;entryX=0.497;entryY=1.014;entryDx=0;entryDy=0;entryPerimeter=0;endArrow=none;endFill=0;" parent="1" source="14" target="4" edge="1">
                    <mxGeometry relative="1" as="geometry"/>
                </mxCell>
                <mxCell id="14" value="barema" style="swimlane;fontStyle=1;childLayout=stackLayout;horizontal=1;startSize=26;horizontalStack=0;resizeParent=1;resizeParentMax=0;resizeLast=0;collapsible=1;marginBottom=0;align=center;fontSize=14;strokeColor=#666666;fillColor=#f5f5f5;fontColor=#333333;" parent="1" vertex="1">
                    <mxGeometry x="300" y="300" width="160" height="66" as="geometry"/>
                </mxCell>
                <mxCell id="16" value="&lt;u&gt;code&lt;br&gt;&lt;/u&gt;maandloon&lt;u&gt;&lt;br&gt;&lt;/u&gt;" style="text;html=1;align=center;verticalAlign=middle;resizable=0;points=[];autosize=1;strokeColor=none;fillColor=none;" parent="14" vertex="1">
                    <mxGeometry y="26" width="160" height="40" as="geometry"/>
                </mxCell>
                <mxCell id="19" value="0..N" style="text;html=1;align=center;verticalAlign=middle;resizable=0;points=[];autosize=1;strokeColor=none;fillColor=none;" parent="1" vertex="1">
                    <mxGeometry x="330" y="196" width="50" height="30" as="geometry"/>
                </mxCell>
                <mxCell id="20" value="1..1" style="text;html=1;align=center;verticalAlign=middle;resizable=0;points=[];autosize=1;strokeColor=none;fillColor=none;" parent="1" vertex="1">
                    <mxGeometry x="380" y="270" width="40" height="30" as="geometry"/>
                </mxCell>
                <mxCell id="21" value="Voor" style="text;html=1;align=center;verticalAlign=middle;resizable=0;points=[];autosize=1;strokeColor=none;fillColor=none;" parent="1" vertex="1">
                    <mxGeometry x="330" y="226" width="50" height="30" as="geometry"/>
                </mxCell>
                <mxCell id="22" value="Heeft" style="text;html=1;align=center;verticalAlign=middle;resizable=0;points=[];autosize=1;strokeColor=none;fillColor=none;" parent="1" vertex="1">
                    <mxGeometry x="380" y="226" width="50" height="30" as="geometry"/>
                </mxCell>
                <mxCell id="28" style="edgeStyle=none;html=1;endArrow=none;endFill=0;exitX=-0.01;exitY=0.894;exitDx=0;exitDy=0;exitPerimeter=0;" parent="1" source="7" edge="1">
                    <mxGeometry relative="1" as="geometry">
                        <mxPoint x="635.3599999999999" y="153.45999999999992" as="sourcePoint"/>
                        <mxPoint x="460" y="153" as="targetPoint"/>
                    </mxGeometry>
                </mxCell>
                <mxCell id="29" value="1..1" style="text;html=1;align=center;verticalAlign=middle;resizable=0;points=[];autosize=1;strokeColor=none;fillColor=none;" parent="1" vertex="1">
                    <mxGeometry x="460" y="125" width="40" height="30" as="geometry"/>
                </mxCell>
                <mxCell id="30" value="0..1" style="text;html=1;align=center;verticalAlign=middle;resizable=0;points=[];autosize=1;strokeColor=none;fillColor=none;" parent="1" vertex="1">
                    <mxGeometry x="600" y="125" width="40" height="30" as="geometry"/>
                </mxCell>
                <mxCell id="31" value="&amp;lt; heeftHooft" style="text;html=1;align=center;verticalAlign=middle;resizable=0;points=[];autosize=1;strokeColor=none;fillColor=none;" parent="1" vertex="1">
                    <mxGeometry x="505" y="125" width="90" height="30" as="geometry"/>
                </mxCell>
                <mxCell id="32" value="isHooft &amp;gt;" style="text;html=1;align=center;verticalAlign=middle;resizable=0;points=[];autosize=1;strokeColor=none;fillColor=none;" parent="1" vertex="1">
                    <mxGeometry x="525" y="150" width="70" height="30" as="geometry"/>
                </mxCell>
                <mxCell id="37" style="edgeStyle=none;html=1;entryX=-0.018;entryY=0.225;entryDx=0;entryDy=0;entryPerimeter=0;endArrow=none;endFill=0;" edge="1" parent="1" source="33" target="4">
                    <mxGeometry relative="1" as="geometry"/>
                </mxCell>
                <mxCell id="33" value="Klant" style="swimlane;fontStyle=1;childLayout=stackLayout;horizontal=1;startSize=26;horizontalStack=0;resizeParent=1;resizeParentMax=0;resizeLast=0;collapsible=1;marginBottom=0;align=center;fontSize=14;strokeColor=#666666;fillColor=#f5f5f5;fontColor=#333333;" vertex="1" parent="1">
                    <mxGeometry x="10" y="70" width="160" height="96" as="geometry"/>
                </mxCell>
                <mxCell id="35" value="&lt;u&gt;KlantNr&lt;/u&gt;&lt;br&gt;naam&lt;br&gt;adres&lt;br&gt;telefoon" style="text;html=1;align=center;verticalAlign=middle;resizable=0;points=[];autosize=1;strokeColor=none;fillColor=none;" vertex="1" parent="33">
                    <mxGeometry y="26" width="160" height="70" as="geometry"/>
                </mxCell>
                <mxCell id="38" value="0..N" style="text;html=1;align=center;verticalAlign=middle;resizable=0;points=[];autosize=1;strokeColor=none;fillColor=none;" vertex="1" parent="1">
                    <mxGeometry x="170" y="90" width="50" height="30" as="geometry"/>
                </mxCell>
                <mxCell id="40" value="1..1" style="text;html=1;align=center;verticalAlign=middle;resizable=0;points=[];autosize=1;strokeColor=none;fillColor=none;" vertex="1" parent="1">
                    <mxGeometry x="260" y="90" width="40" height="30" as="geometry"/>
                </mxCell>
                <mxCell id="41" value="&amp;lt; contactpersoonVan" style="text;html=1;align=center;verticalAlign=middle;resizable=0;points=[];autosize=1;strokeColor=none;fillColor=none;" vertex="1" parent="1">
                    <mxGeometry x="165" y="120" width="140" height="30" as="geometry"/>
                </mxCell>
                <mxCell id="45" style="edgeStyle=none;html=1;entryX=-0.01;entryY=-0.002;entryDx=0;entryDy=0;entryPerimeter=0;endArrow=none;endFill=0;exitX=0.5;exitY=0;exitDx=0;exitDy=0;startArrow=none;" edge="1" parent="1" source="48" target="46">
                    <mxGeometry relative="1" as="geometry">
                        <mxPoint x="89.41509533063714" y="300" as="sourcePoint"/>
                        <mxPoint x="88.07999999999998" y="167.61" as="targetPoint"/>
                    </mxGeometry>
                </mxCell>
                <mxCell id="42" value="Wijn" style="swimlane;fontStyle=1;childLayout=stackLayout;horizontal=1;startSize=26;horizontalStack=0;resizeParent=1;resizeParentMax=0;resizeLast=0;collapsible=1;marginBottom=0;align=center;fontSize=14;strokeColor=#666666;fillColor=#f5f5f5;fontColor=#333333;" vertex="1" parent="1">
                    <mxGeometry x="20" y="450" width="160" height="116" as="geometry"/>
                </mxCell>
                <mxCell id="44" value="code&lt;br&gt;naam&lt;br&gt;jaar&lt;br&gt;aankoop prijs&lt;br&gt;voorraad" style="text;html=1;align=center;verticalAlign=middle;resizable=0;points=[];autosize=1;strokeColor=none;fillColor=none;" vertex="1" parent="42">
                    <mxGeometry y="26" width="160" height="90" as="geometry"/>
                </mxCell>
                <mxCell id="46" value="1..1" style="text;html=1;align=center;verticalAlign=middle;resizable=0;points=[];autosize=1;strokeColor=none;fillColor=none;" vertex="1" parent="1">
                    <mxGeometry x="95" y="166" width="40" height="30" as="geometry"/>
                </mxCell>
                <mxCell id="47" value="1..1" style="text;html=1;align=center;verticalAlign=middle;resizable=0;points=[];autosize=1;strokeColor=none;fillColor=none;" vertex="1" parent="1">
                    <mxGeometry x="50" y="420" width="40" height="30" as="geometry"/>
                </mxCell>
                <mxCell id="56" style="edgeStyle=none;html=1;exitX=0.5;exitY=0;exitDx=0;exitDy=0;entryX=0.024;entryY=1.197;entryDx=0;entryDy=0;entryPerimeter=0;endArrow=none;endFill=0;" edge="1" parent="1" source="52" target="46">
                    <mxGeometry relative="1" as="geometry"/>
                </mxCell>
                <mxCell id="57" style="edgeStyle=none;html=1;exitX=0.5;exitY=1;exitDx=0;exitDy=0;endArrow=none;endFill=0;" edge="1" parent="1">
                    <mxGeometry relative="1" as="geometry">
                        <mxPoint x="94" y="379" as="targetPoint"/>
                        <mxPoint x="224" y="319" as="sourcePoint"/>
                    </mxGeometry>
                </mxCell>
                <mxCell id="52" value="U" style="ellipse;whiteSpace=wrap;html=1;strokeColor=#b85450;fillColor=#f8cecc;" vertex="1" parent="1">
                    <mxGeometry x="200" y="280" width="40" height="40" as="geometry"/>
                </mxCell>
                <mxCell id="48" value="Aankoop" style="swimlane;fontStyle=1;childLayout=stackLayout;horizontal=1;startSize=26;horizontalStack=0;resizeParent=1;resizeParentMax=0;resizeLast=0;collapsible=1;marginBottom=0;align=center;fontSize=14;strokeColor=#666666;fillColor=#f5f5f5;fontColor=#333333;dashed=1;" vertex="1" parent="1">
                    <mxGeometry x="40" y="240" width="108" height="96" as="geometry"/>
                </mxCell>
                <mxCell id="50" value="bedragBetaaled&lt;br&gt;Datum&lt;br&gt;aantal&lt;br&gt;korting" style="text;html=1;align=center;verticalAlign=middle;resizable=0;points=[];autosize=1;strokeColor=none;fillColor=none;" vertex="1" parent="48">
                    <mxGeometry y="26" width="108" height="70" as="geometry"/>
                </mxCell>
                <mxCell id="54" style="edgeStyle=none;html=1;entryX=0;entryY=0.5;entryDx=0;entryDy=0;endArrow=none;endFill=0;" edge="1" parent="1" target="52">
                    <mxGeometry relative="1" as="geometry">
                        <mxPoint x="116" y="295" as="sourcePoint"/>
                        <mxPoint x="188" y="295" as="targetPoint"/>
                    </mxGeometry>
                </mxCell>
                <mxCell id="55" style="edgeStyle=none;html=1;entryX=1.092;entryY=1.036;entryDx=0;entryDy=0;entryPerimeter=0;endArrow=none;endFill=0;" edge="1" parent="1" source="50" target="47">
                    <mxGeometry relative="1" as="geometry"/>
                </mxCell>
                <mxCell id="59" value="0..N" style="text;html=1;align=center;verticalAlign=middle;resizable=0;points=[];autosize=1;strokeColor=none;fillColor=none;" vertex="1" parent="1">
                    <mxGeometry x="50" y="210" width="50" height="30" as="geometry"/>
                </mxCell>
                <mxCell id="60" value="0..N" style="text;html=1;align=center;verticalAlign=middle;resizable=0;points=[];autosize=1;strokeColor=none;fillColor=none;" vertex="1" parent="1">
                    <mxGeometry x="45" y="336" width="50" height="30" as="geometry"/>
                </mxCell>
            </root>
        </mxGraphModel>
    </diagram>
</mxfile>